HIERARCHY
ROOT root
{
	OFFSET 0.000000 0.000000 0.000000
	CHANNELS 6 Xposition Yposition Zposition Zrotation Yrotation Xrotation
	JOINT lhip
	{
		OFFSET 0.058581 -0.082280 -0.017664
		CHANNELS 3 Zrotation Yrotation Xrotation
		JOINT lknee
		{
			OFFSET 0.043451 -0.386469 0.008037
			CHANNELS 3 Zrotation Yrotation Xrotation
			JOINT lankle
			{
				OFFSET -0.014790 -0.426874 -0.037428
				CHANNELS 3 Zrotation Yrotation Xrotation
				JOINT ltoe
				{
					OFFSET 0.041054 -0.060286 0.122042
					CHANNELS 3 Zrotation Yrotation Xrotation
					End Site
					{
						OFFSET 0.000000 0.000000 0.000000
					}
				}
			}
		}
	}
	JOINT rhip
	{
		OFFSET -0.060310 -0.090513 -0.013543
		CHANNELS 3 Zrotation Yrotation Xrotation
		JOINT rknee
		{
			OFFSET -0.043257 -0.383688 -0.004843
			CHANNELS 3 Zrotation Yrotation Xrotation
			JOINT rankle
			{
				OFFSET 0.019056 -0.420046 -0.034562
				CHANNELS 3 Zrotation Yrotation Xrotation
				JOINT rtoe
				{
					OFFSET -0.034840 -0.062106 0.130323
					CHANNELS 3 Zrotation Yrotation Xrotation
					End Site
					{
						OFFSET 0.000000 0.000000 0.000000
					}
				}
			}
		}
	}
	JOINT lowerback
	{
		OFFSET 0.004439 0.124404 -0.038385
		CHANNELS 3 Zrotation Yrotation Xrotation
		JOINT upperback
		{
			OFFSET 0.004488 0.137956 0.026820
			CHANNELS 3 Zrotation Yrotation Xrotation
			JOINT chest
			{
				OFFSET -0.002265 0.056032 0.002855
				CHANNELS 3 Zrotation Yrotation Xrotation
				JOINT lowerneck
				{
					OFFSET -0.013390 0.211636 -0.033468
					CHANNELS 3 Zrotation Yrotation Xrotation
					JOINT upperneck
					{
						OFFSET 0.010113 0.088937 0.050410
						CHANNELS 3 Zrotation Yrotation Xrotation
						End Site
						{
							OFFSET 0.000000 0.000000 0.000000
						}
					}
				}
				JOINT lclavicle
				{
					OFFSET 0.071702 0.114000 -0.018898
					CHANNELS 3 Zrotation Yrotation Xrotation
					JOINT lshoulder
					{
						OFFSET 0.122921 0.045205 -0.019046
						CHANNELS 3 Zrotation Yrotation Xrotation
						JOINT lelbow
						{
							OFFSET 0.255332 -0.015649 -0.022946
							CHANNELS 3 Zrotation Yrotation Xrotation
							JOINT lwrist
							{
								OFFSET 0.265709 0.012698 -0.007375
								CHANNELS 3 Zrotation Yrotation Xrotation
								End Site
								{
									OFFSET 0.000000 0.000000 0.000000
								}
							}
						}
					}
				}
				JOINT rclavicle
				{
					OFFSET -0.082954 0.112472 -0.023707
					CHANNELS 3 Zrotation Yrotation Xrotation
					JOINT rshoulder
					{
						OFFSET -0.113228 0.046853 -0.008472
						CHANNELS 3 Zrotation Yrotation Xrotation
						JOINT relbow
						{
							OFFSET -0.260127 -0.014369 -0.031269
							CHANNELS 3 Zrotation Yrotation Xrotation
							JOINT rwrist
							{
								OFFSET -0.269108 0.006794 -0.006027
								CHANNELS 3 Zrotation Yrotation Xrotation
								End Site
								{
									OFFSET 0.000000 0.000000 0.000000
								}
							}
						}
					}
				}
			}
		}
	}
}
MOTION
Frames: 7
Frame Time: 0.033333
1.163094 0.710877 0.994368 -88.626702 -0.956206 88.269086 -1.402012 -2.702725 0.389663 -0.631341 -13.658851 2.159735 3.423592 14.261440 -9.542558 0.000000 -0.000000 0.000000 1.117615 -4.262175 1.302793 -2.091029 4.178340 2.516135 1.057337 -14.556669 -8.247512 0.000000 -0.000000 0.000000 -0.470648 3.835475 5.796043 -0.606134 -0.948713 2.590051 -1.487983 2.894767 -0.356104 -0.108563 -6.756722 -6.825642 4.209121 -7.260146 0.829403 -22.428533 4.572915 -4.707868 -40.018358 -8.027202 5.535692 11.158981 -7.050414 -21.250794 -6.260635 -5.181604 8.234122 22.695592 1.469371 -0.083895 46.057196 -0.708932 4.971118 -14.953767 16.874318 -7.347381 0.189177 3.524722 14.221082 
1.163709 0.710850 0.994495 -89.081375 -0.957729 88.286903 -1.480601 -2.657814 0.413784 -0.508994 -13.363858 2.091324 3.532903 14.437711 -9.543329 0.000000 -0.000000 0.000000 1.113941 -3.969814 1.248000 -2.089275 4.246669 2.458918 1.106326 -14.527157 -8.194965 0.000000 -0.000000 0.000000 -0.398645 3.671118 6.077010 -0.529214 -0.946812 2.154756 -1.535417 2.769583 -0.198720 0.027663 -6.509311 -6.793644 4.046654 -7.163250 0.810210 -22.021757 5.265368 -4.648790 -41.140605 -6.875947 6.236414 10.811583 -7.304478 -20.289311 -6.162157 -5.645594 7.630979 22.356965 0.848316 -0.066073 46.589243 -2.073560 5.798655 -14.079144 17.443709 -5.577729 -0.247521 3.470061 14.185900 
1.164336 0.710740 0.994574 -89.359718 -0.867431 88.345306 -1.377918 -2.621736 0.335901 -0.491051 -13.220640 2.048165 3.442174 14.427421 -9.552679 0.000000 -0.000000 0.000000 1.196882 -3.837624 1.182616 -2.087692 4.286227 2.313994 1.216573 -14.385657 -8.016244 0.000000 -0.000000 0.000000 -0.287336 3.500064 6.303329 -0.409374 -0.973060 1.596802 -1.453109 2.572073 0.132113 0.088068 -6.213241 -6.791981 3.692638 -6.722597 0.599937 -22.367781 6.098565 -4.973084 -42.366328 -6.099130 6.890069 10.168403 -7.171285 -19.178370 -5.844385 -5.766887 8.784219 22.405010 -0.066166 -0.224786 47.035703 -3.059475 6.757814 -12.382200 17.618224 -3.031951 0.123418 3.440800 15.216840 
1.164613 0.710443 0.994477 -89.769707 -0.929041 88.431898 -1.452420 -2.458702 0.505640 -0.448118 -13.254675 1.591200 3.582583 14.666979 -9.486577 0.000000 -0.000000 0.000000 1.116626 -3.682167 1.089322 -2.106700 4.408219 2.229073 1.104869 -14.263151 -8.038361 0.000000 -0.000000 0.000000 -0.238537 3.368293 6.240016 -0.386633 -0.932416 1.701755 -1.436545 2.284247 0.109982 0.077151 -5.988622 -7.144407 3.517637 -5.743419 0.661395 -23.262065 6.134855 -4.648787 -44.631726 -4.858611 7.871830 9.808131 -6.501760 -18.108660 -4.886150 -5.559670 8.564543 22.695381 -0.565011 -0.121128 48.466864 -4.839156 8.000174 -10.034223 17.645150 -0.278953 -0.170389 3.331175 15.533927 
1.165199 0.710146 0.994133 -90.129979 -0.954036 88.368366 -1.510180 -2.347243 0.650606 -0.420926 -13.016229 1.481651 3.604330 14.627464 -9.414544 0.000000 -0.000000 0.000000 1.079990 -3.475021 1.108008 -2.155526 4.443505 2.180556 1.026189 -14.209834 -7.972274 0.000000 -0.000000 0.000000 -0.100246 3.298938 6.453618 -0.460161 -0.868947 1.753061 -1.467766 2.193765 0.072098 0.203244 -5.787241 -7.236010 3.381058 -5.283054 0.458384 -23.905872 6.145310 -4.460567 -46.457063 -4.333577 8.499586 9.731175 -6.267943 -17.778255 -5.417466 -5.075607 8.738857 22.893580 -0.780079 0.066197 49.983846 -5.628218 8.742621 -9.312555 17.821420 1.042696 0.661188 2.641105 15.712731 
1.165823 0.710646 0.995119 -90.746329 -0.846319 87.423414 -1.150243 -0.892860 1.789650 -0.319302 -10.690843 1.001755 3.021359 10.965809 -8.291076 0.000000 -0.000000 0.000000 1.140287 -3.641937 1.848162 -2.510567 1.835824 2.624228 1.161616 -10.401817 -8.248347 0.000000 -0.000000 0.000000 0.073204 3.645942 8.369219 -0.175860 -1.332459 1.964372 -1.725666 1.525393 -1.466460 -1.107494 -5.799581 -6.845601 5.150430 -3.759910 0.967574 -26.427808 4.928446 -3.975698 -47.097611 -1.160901 8.234497 9.594523 -7.815598 -11.449535 -6.184988 -5.911924 2.280242 25.423571 -0.220594 0.794356 50.458492 -6.998938 12.998574 -10.582847 16.720764 0.360049 3.511369 4.583126 13.103781 
1.167603 0.710277 0.995069 -91.154126 -0.839416 87.447958 -1.163185 -0.862688 1.699769 -0.337380 -10.456842 0.940050 3.066447 10.950935 -8.267958 0.000000 -0.000000 0.000000 1.136931 -3.604652 1.565918 -2.496559 2.019564 2.759556 1.160721 -10.203901 -8.335770 0.000000 -0.000000 0.000000 0.202735 3.526456 8.666287 -0.219989 -1.385602 1.939741 -1.728054 1.372925 -1.392877 -1.208615 -5.471668 -7.194632 5.011786 -3.380876 0.878163 -27.624883 4.681939 -3.741719 -49.134196 -1.141143 9.152677 8.415308 -7.793931 -9.357829 -7.179810 -5.760572 2.715308 26.271042 -0.367716 1.066830 52.167502 -7.196241 13.509653 -9.912006 16.389363 1.440436 4.197614 4.221922 13.119386 
